<svg width="131" height="26" viewBox="0 0 131 26" fill="none" xmlns="http://www.w3.org/2000/svg">
<g clip-path="url(#clip0_1038_1160)">
<path d="M97.8719 6.47031C98.891 6.47031 99.8162 6.59993 100.648 6.85917C101.479 7.1184 102.181 7.45362 102.753 7.86483C103.11 8.11512 103.392 8.39224 103.597 8.69617C103.803 9.0001 103.906 9.39343 103.906 9.87614V19.2623L103.901 19.5175C103.872 20.3575 103.695 21.0904 103.37 21.7161C103.012 22.4044 102.525 22.9765 101.908 23.4324C101.291 23.8883 100.567 24.2235 99.7358 24.4381C98.9044 24.6526 98.015 24.7599 97.0674 24.7599C95.4405 24.7599 94.1622 24.5409 93.2325 24.1029C92.3028 23.6648 91.838 22.9542 91.838 21.9709C91.838 21.5597 91.9229 21.1976 92.0928 20.8848C92.2626 20.5719 92.4548 20.335 92.6693 20.1741C93.1878 20.4601 93.7733 20.7015 94.4259 20.8982C95.0784 21.0948 95.7533 21.1932 96.4506 21.1932C97.416 21.1932 98.1848 21.0322 98.7569 20.7104C99.329 20.3886 99.6151 19.8702 99.6151 19.155V18.7259L99.4112 18.8097C98.7182 19.0757 97.8923 19.2087 96.9333 19.2087C96.1288 19.2087 95.3645 19.088 94.6404 18.8466C93.9164 18.6053 93.2817 18.2298 92.7364 17.7203C92.1911 17.2107 91.7531 16.5537 91.4223 15.7492C91.0916 14.9447 90.9262 13.9882 90.9262 12.8797C90.9262 11.7891 91.1005 10.8416 91.4491 10.037C91.7978 9.23252 92.2805 8.56655 92.8973 8.03914C93.5141 7.51173 94.2471 7.1184 95.0963 6.85917C95.9455 6.59993 96.8708 6.47031 97.8719 6.47031ZM25.6866 6.88663C27.2809 6.88663 28.5856 7.24439 29.6005 7.95991C30.6155 8.67542 31.2163 9.93924 31.4029 11.7514H27.9964L27.9638 11.5509C27.8867 11.1557 27.7381 10.7947 27.5181 10.4681C27.1448 9.95479 26.5654 9.69814 25.7799 9.69814C24.66 9.69814 23.8939 10.2542 23.4817 11.3664C23.2639 11.9575 23.155 12.743 23.155 13.7229C23.155 14.6562 23.2639 15.4067 23.4817 15.9745C23.8783 17.0322 24.625 17.561 25.7216 17.561C26.4993 17.561 27.0515 17.3511 27.3781 16.9311C27.7048 16.5111 27.9031 15.9667 27.9731 15.2978H31.3679L31.3449 15.5302C31.2322 16.4557 30.8744 17.3349 30.2713 18.1677C29.2292 19.622 27.6854 20.3492 25.6399 20.3492C23.5945 20.3492 22.0896 19.7426 21.1252 18.5293C20.1608 17.3161 19.6786 15.7411 19.6786 13.8046C19.6786 11.6191 20.2113 9.9198 21.2768 8.70653C22.3423 7.49326 23.8122 6.88663 25.6866 6.88663ZM56.5835 6.85163C57.6413 6.85163 58.594 7.04996 59.4417 7.4466C60.2894 7.84325 60.9894 8.46932 61.5416 9.32483C62.0393 10.0792 62.3621 10.9542 62.5099 11.9497C62.5954 12.533 62.6304 13.3729 62.6149 14.4695H53.912L53.9239 14.6907C54.007 15.8489 54.4036 16.6696 55.1136 17.1527C55.5725 17.4716 56.1247 17.631 56.7702 17.631C57.4546 17.631 58.0107 17.4366 58.4384 17.0477C58.6717 16.8377 58.8779 16.5461 59.0567 16.1728H62.4515L62.4263 16.3471C62.3037 17.0451 61.9194 17.7531 61.2733 18.471C60.1844 19.7076 58.6601 20.3259 56.7002 20.3259C55.0825 20.3259 53.6554 19.8048 52.4188 18.7626C51.1822 17.7205 50.5639 16.025 50.5639 13.6763C50.5639 11.4753 51.1219 9.78758 52.2379 8.6132C53.354 7.43882 54.8025 6.85163 56.5835 6.85163ZM79.9286 2.1795C80.3219 2.1795 80.675 2.20632 80.9878 2.25995C81.3007 2.31359 81.5644 2.42086 81.779 2.58176C81.9935 2.74267 82.1589 2.96168 82.2751 3.2388C82.3913 3.51591 82.4494 3.87795 82.4494 4.32491V19.8791L82.3594 19.8952C82.1678 19.9292 81.9073 19.973 81.5778 20.0266C81.1934 20.0892 80.8046 20.1205 80.4113 20.1205C80.0179 20.1205 79.6648 20.0936 79.352 20.04C79.0391 19.9864 78.7754 19.8791 78.5609 19.7182C78.3463 19.5573 78.1809 19.3383 78.0647 19.0612C77.9485 18.784 77.8904 18.422 77.8904 17.975V2.42086L77.9804 2.40471C78.172 2.37078 78.4325 2.327 78.762 2.27336C79.1464 2.21079 79.5352 2.1795 79.9286 2.1795ZM86.7817 6.81894C87.175 6.81894 87.5281 6.84576 87.841 6.89939C88.1538 6.95303 88.4175 7.0603 88.6321 7.2212C88.8466 7.38211 89.012 7.60112 89.1282 7.87823C89.2444 8.15535 89.3025 8.51739 89.3025 8.96434V19.8791L89.2125 19.8952C89.0209 19.9292 88.7604 19.973 88.4309 20.0266C88.0465 20.0892 87.6577 20.1205 87.2644 20.1205C86.871 20.1205 86.518 20.0936 86.2051 20.04C85.8922 19.9864 85.6285 19.8791 85.414 19.7182C85.1994 19.5573 85.034 19.3383 84.9178 19.0612C84.8016 18.784 84.7435 18.422 84.7435 17.975V7.0603L84.8335 7.04415C85.0251 7.01022 85.2856 6.96644 85.6151 6.9128C85.9995 6.85023 86.3883 6.81894 86.7817 6.81894ZM108.131 2.1795C108.524 2.1795 108.877 2.20632 109.19 2.25995C109.503 2.31359 109.767 2.42086 109.981 2.58176C110.196 2.74267 110.361 2.96168 110.477 3.2388C110.594 3.51591 110.652 3.87795 110.652 4.32491V6.95303L110.745 6.91888C110.974 6.83773 111.296 6.74631 111.711 6.64463C112.185 6.52842 112.708 6.47031 113.28 6.47031C115.05 6.47031 116.431 6.9128 117.423 7.79778C118.415 8.68276 118.912 10.0013 118.912 11.7534V19.8791L118.829 19.9021C118.65 19.9481 118.396 19.994 118.067 20.04C117.682 20.0936 117.285 20.1205 116.873 20.1205C116.48 20.1205 116.127 20.0936 115.814 20.04C115.501 19.9864 115.238 19.8791 115.023 19.7182C114.808 19.5573 114.643 19.3383 114.527 19.0612C114.411 18.784 114.353 18.422 114.353 17.975V12.0215L114.349 11.8563C114.323 11.2108 114.141 10.7518 113.803 10.4795C113.436 10.1845 112.985 10.037 112.449 10.037C112.091 10.037 111.751 10.0817 111.429 10.1711C111.108 10.2605 110.848 10.3678 110.652 10.4929V19.8791L110.569 19.9021C110.39 19.9481 110.136 19.994 109.807 20.04C109.423 20.0936 109.025 20.1205 108.614 20.1205C108.22 20.1205 107.867 20.0936 107.554 20.04C107.241 19.9864 106.978 19.8791 106.763 19.7182C106.549 19.5573 106.383 19.3383 106.267 19.0612C106.151 18.784 106.093 18.422 106.093 17.975V2.42086L106.183 2.40471C106.374 2.37078 106.635 2.327 106.964 2.27336C107.349 2.21079 107.738 2.1795 108.131 2.1795ZM76.0254 3.65447L76.0868 3.75839C76.1874 3.94089 76.2786 4.16996 76.3606 4.44559C76.4589 4.77634 76.5081 5.12049 76.5081 5.47806C76.5081 6.17532 76.3606 6.67144 76.0656 6.96644C75.7706 7.26143 75.3728 7.40893 74.8722 7.40893H69.2405V10.4393H75.1136L75.1832 10.5429C75.2962 10.7241 75.3937 10.9488 75.4756 11.217C75.574 11.5388 75.6231 11.8785 75.6231 12.2361C75.6231 12.9155 75.4756 13.4027 75.1806 13.6976C74.8856 13.9926 74.4878 14.1401 73.9872 14.1401H69.2942V19.7986L69.203 19.8216C69.0071 19.8676 68.7291 19.9136 68.369 19.9595C67.9488 20.0132 67.5331 20.04 67.1219 20.04C66.7107 20.04 66.3487 20.0087 66.0358 19.9461C65.723 19.8836 65.4593 19.7718 65.2447 19.6109C65.0302 19.45 64.8693 19.2265 64.762 18.9405C64.6547 18.6544 64.6011 18.279 64.6011 17.8141V6.1485L64.6057 5.95966C64.6399 5.27954 64.8618 4.73462 65.2715 4.32491C65.7185 3.87795 66.3264 3.65447 67.0951 3.65447H76.0254ZM12.9943 2.73353V5.75503H4.37309V9.70981H11.921V12.6963H4.37309V19.9059H0.803284V2.73353H12.9943ZM17.8647 7.18995V19.9059H14.4932V7.18995H17.8647ZM36.2383 2.76853V12.0313L40.3798 7.24828H44.4979L40.0531 12.113L44.6729 19.9059H40.6597L37.6149 14.4695L36.2383 15.9045V19.9059H32.9718V2.76853H36.2383ZM49.0066 2.7102V19.9059H45.6818V2.7102H49.0066ZM119.16 3.54418C119.717 3.37659 120.668 3.33931 121.782 3.83173C122.906 4.32882 123.607 5.18146 123.885 6.38964L129.919 6.90247C129.994 6.9068 130.068 6.92194 130.142 6.94789C130.253 6.9868 130.312 7.04155 130.362 7.08441C130.485 7.18949 130.525 7.27051 130.583 7.4156C130.687 7.6736 130.655 7.97725 130.52 8.18546C130.302 8.52114 129.961 8.73833 129.496 8.83704L124.625 9.87243L125.485 13.9178C125.584 14.3822 125.801 14.6813 126.138 14.8151C126.474 14.9489 126.91 14.9589 127.446 14.845C127.714 14.7881 127.986 14.7069 128.263 14.6015C128.539 14.4961 128.777 14.3849 128.976 14.2679C129.178 14.4302 129.363 14.6196 129.53 14.836C129.698 15.0525 129.818 15.3304 129.89 15.6697C130.156 16.9242 128.182 18.1094 126.888 18.3419C125.689 18.5573 123.85 18.7363 122.798 15.9818C121.747 13.2273 120.095 8.61021 118.835 4.76246C118.726 4.43041 118.659 4.10428 118.776 3.83516C118.839 3.6897 118.885 3.62691 119.16 3.54418ZM98.0865 10.037C97.2104 10.037 96.5534 10.2829 96.1154 10.7745C95.6774 11.2662 95.4584 11.9679 95.4584 12.8797C95.4584 13.9167 95.6774 14.6631 96.1154 15.119C96.5534 15.5749 97.1121 15.8028 97.7915 15.8028C98.5245 15.8028 99.1055 15.633 99.5346 15.2933V10.3589L99.4526 10.316C99.3339 10.2587 99.1779 10.2015 98.9849 10.1443C98.7435 10.0728 98.4441 10.037 98.0865 10.037ZM56.5835 9.59315C55.8136 9.59315 55.2167 9.83425 54.7928 10.3164C54.3689 10.7986 54.1026 11.4519 53.9937 12.2763H59.1617C59.1073 11.3975 58.8409 10.7306 58.3626 10.2756C57.8843 9.82064 57.2913 9.59315 56.5835 9.59315ZM17.8647 2.6052V5.67337H14.4932V2.6052H17.8647ZM87.023 0.838623C87.7739 0.838623 88.3773 1.07104 88.8332 1.53588C89.2891 2.00072 89.517 2.57283 89.517 3.2522C89.517 3.93158 89.2891 4.50369 88.8332 4.96853C88.3773 5.43337 87.7739 5.66578 87.023 5.66578C86.2721 5.66578 85.6687 5.43337 85.2128 4.96853C84.7569 4.50369 84.529 3.93158 84.529 3.2522C84.529 2.57283 84.7569 2.00072 85.2128 1.53588C85.6687 1.07104 86.2721 0.838623 87.023 0.838623Z" fill="url(#paint0_linear_1038_1160)"/>
</g>
<defs>
<linearGradient id="paint0_linear_1038_1160" x1="121.217" y1="12.5145" x2="1.99618" y2="24.6499" gradientUnits="userSpaceOnUse">
<stop stop-color="#299BD8"/>
<stop offset="1" stop-color="#1262AF"/>
</linearGradient>
<clipPath id="clip0_1038_1160">
<rect width="130.072" height="24.6688" fill="white" transform="translate(0.803284 0.445892)"/>
</clipPath>
</defs>
</svg>
