<svg width="50" height="50" viewBox="0 0 50 50" fill="none" xmlns="http://www.w3.org/2000/svg">
<path d="M0.768555 12.4284C0.768555 5.8227 6.12351 0.467743 12.7292 0.467743H37.6873C44.293 0.467743 49.648 5.8227 49.648 12.4284V37.3865C49.648 43.9922 44.293 49.3471 37.6873 49.3471H12.7292C6.12351 49.3471 0.768555 43.9922 0.768555 37.3865V12.4284Z" fill="#79CA00"/>
<path d="M33.0151 16.2062H17.401C16.3246 16.2062 15.4492 17.0734 15.4492 18.1398V31.6747C15.4492 32.741 16.3246 33.6082 17.401 33.6082H33.0151C34.0915 33.6082 34.9668 32.741 34.9668 31.6747V18.1398C34.9668 17.0734 34.0915 16.2062 33.0151 16.2062ZM33.016 22.0069C33.0151 22.0069 33.0151 22.0069 33.016 22.0069H32.5623L29.9596 18.1398H33.0151L33.016 22.0069ZM28.6236 27.8075L23.2563 30.7079V24.9072L28.6236 27.8075ZM27.6829 22.0069L25.0802 18.1398H27.6136L30.2162 22.0069H27.6829ZM25.3368 22.0069H22.8035L20.2008 18.1398H22.7342L25.3368 22.0069ZM17.401 18.1398H17.8548L20.4574 22.0069H17.401V18.1398Z" fill="white"/>
</svg>
