<svg width="53" height="50" viewBox="0 0 53 50" fill="none" xmlns="http://www.w3.org/2000/svg">
<path d="M0.561707 12.4284C0.561707 5.8227 5.91667 0.467743 12.5223 0.467743H40.9288C47.5345 0.467743 52.8895 5.8227 52.8895 12.4284V37.3865C52.8895 43.9922 47.5345 49.3471 40.9288 49.3471H12.5223C5.91667 49.3471 0.561707 43.9922 0.561707 37.3865V12.4284Z" fill="#4DABFF"/>
<path d="M34.8776 18.2327C34.642 17.5895 33.9823 17.1316 33.2048 17.1316H30.2596V16.0415C30.2596 15.4419 29.7295 14.9513 29.0816 14.9513H24.3693C23.7213 14.9513 23.1912 15.4419 23.1912 16.0415V17.1316H20.2461C19.4685 17.1316 18.8206 17.5895 18.5732 18.2327L16.2524 24.4139C16.1699 24.6429 16.1228 24.8827 16.1228 25.1334V32.939C16.1228 33.8438 16.9121 34.5742 17.8899 34.5742C18.8677 34.5742 19.657 33.8438 19.657 32.939V32.3939H33.7938V32.939C33.7938 33.8329 34.5831 34.5742 35.5609 34.5742C36.5269 34.5742 37.328 33.8438 37.328 32.939V25.1334C37.328 24.8936 37.2809 24.6429 37.1984 24.4139L34.8776 18.2327ZM20.2461 29.1234C19.2683 29.1234 18.479 28.393 18.479 27.4882C18.479 26.5834 19.2683 25.8529 20.2461 25.8529C21.2238 25.8529 22.0132 26.5834 22.0132 27.4882C22.0132 28.393 21.2238 29.1234 20.2461 29.1234ZM33.2048 29.1234C32.227 29.1234 31.4377 28.393 31.4377 27.4882C31.4377 26.5834 32.227 25.8529 33.2048 25.8529C34.1826 25.8529 34.9719 26.5834 34.9719 27.4882C34.9719 28.393 34.1826 29.1234 33.2048 29.1234ZM18.479 23.6726L20.2461 18.7669H33.2048L34.9719 23.6726H18.479Z" fill="white"/>
</svg>
