<svg width="49" height="50" viewBox="0 0 49 50" fill="none" xmlns="http://www.w3.org/2000/svg">
<path d="M0.0790787 12.4284C0.0790787 5.8227 5.43404 0.467743 12.0397 0.467743H36.9978C43.6035 0.467743 48.9585 5.8227 48.9585 12.4284V37.3865C48.9585 43.9922 43.6035 49.3471 36.9978 49.3471H12.0397C5.43404 49.3471 0.0790787 43.9922 0.0790787 37.3865V12.4284Z" fill="#FDBF00"/>
<path d="M14.4575 30.8678C14.4575 31.9642 14.948 32.9485 15.7152 33.6337V35.2284C15.7152 36.2625 16.5578 37.0973 17.6016 37.0973C18.6455 37.0973 19.4881 36.2625 19.4881 35.2284V34.6055H29.5492V35.2284C29.5492 36.2501 30.3918 37.0973 31.4356 37.0973C32.4669 37.0973 33.3221 36.2625 33.3221 35.2284V33.6337C34.0892 32.9485 34.5797 31.9642 34.5797 30.8678V18.4088C34.5797 14.0482 30.0774 13.4252 24.5186 13.4252C18.9599 13.4252 14.4575 14.0482 14.4575 18.4088V30.8678ZM18.8593 32.1137C17.8154 32.1137 16.9728 31.2789 16.9728 30.2449C16.9728 29.2108 17.8154 28.376 18.8593 28.376C19.9031 28.376 20.7457 29.2108 20.7457 30.2449C20.7457 31.2789 19.9031 32.1137 18.8593 32.1137ZM30.178 32.1137C29.1341 32.1137 28.2915 31.2789 28.2915 30.2449C28.2915 29.2108 29.1341 28.376 30.178 28.376C31.2218 28.376 32.0644 29.2108 32.0644 30.2449C32.0644 31.2789 31.2218 32.1137 30.178 32.1137ZM32.0644 24.6383H16.9728V18.4088H32.0644V24.6383Z" fill="white"/>
</svg>
