<svg width="50" height="50" viewBox="0 0 50 50" fill="none" xmlns="http://www.w3.org/2000/svg">
<path d="M0.376099 12.4284C0.376099 5.8227 5.73106 0.467743 12.3367 0.467743H37.2949C43.9005 0.467743 49.2555 5.8227 49.2555 12.4284V37.3865C49.2555 43.9922 43.9005 49.3471 37.2949 49.3471H12.3367C5.73106 49.3471 0.376099 43.9922 0.376099 37.3865V12.4284Z" fill="#FF9B53"/>
<path d="M29.0063 13.9554C28.5137 13.4677 27.8459 13.1938 27.1495 13.1938C26.4532 13.1938 25.7854 13.4677 25.2928 13.9554L13.7601 25.3815C13.5162 25.6232 13.3228 25.91 13.1908 26.2257C13.0588 26.5414 12.9908 26.8798 12.9908 27.2215C12.9908 27.5632 13.0588 27.9016 13.1908 28.2173C13.3228 28.533 13.5162 28.8199 13.7601 29.0615L15.1283 30.4158C15.7237 31.0067 16.5607 30.9015 17.0662 30.6031C17.345 30.4391 17.6711 30.3718 17.9928 30.4118C18.3146 30.4517 18.6138 30.5968 18.8431 30.8239C19.0724 31.0511 19.2188 31.3474 19.2591 31.6662C19.2995 31.985 19.2315 32.308 19.0659 32.5842C18.7659 33.085 18.6585 33.9142 19.2551 34.504L20.6244 35.8594C20.8683 36.101 21.1579 36.2927 21.4766 36.4235C21.7952 36.5542 22.1368 36.6215 22.4817 36.6215C22.8267 36.6215 23.1682 36.5542 23.4869 36.4235C23.8056 36.2927 24.0951 36.101 24.3391 35.8594L35.8705 24.4355C36.1145 24.1939 36.3079 23.907 36.4399 23.5913C36.5719 23.2756 36.6399 22.9373 36.6399 22.5956C36.6399 22.2538 36.5719 21.9155 36.4399 21.5998C36.3079 21.2841 36.1145 20.9972 35.8705 20.7556L34.5035 19.4002C33.9082 18.8103 33.07 18.9144 32.5645 19.2128C32.2857 19.3768 31.9596 19.4442 31.6379 19.4042C31.3161 19.3642 31.0169 19.2192 30.7876 18.992C30.5583 18.7648 30.4119 18.4685 30.3716 18.1497C30.3312 17.831 30.3992 17.508 30.5647 17.2317C30.8659 16.731 30.9722 15.9018 30.3756 15.3119L29.0074 13.9554H29.0063Z" fill="white"/>
</svg>
