<svg width="50" height="50" viewBox="0 0 50 50" fill="none" xmlns="http://www.w3.org/2000/svg">
<rect x="0.596436" y="0.467743" width="48.8794" height="48.8794" rx="11.9606" fill="#36DA76"/>
<path d="M31.3661 34.4346C31.3251 33.5574 31.2707 32.6849 31.2272 31.8143C31.0866 29.0909 31.0981 26.3275 30.9509 23.5906C30.8038 20.8742 30.8911 18.156 30.8134 15.4397C30.7978 14.8752 30.823 13.7603 30.2389 13.4384C28.9823 12.7471 28.2363 14.6328 27.9166 15.4006C27.3403 16.7941 27.0073 18.2597 26.5957 19.7034C26.2449 20.9392 25.8454 22.1709 25.71 23.4504C25.6097 24.4105 25.6189 25.4852 26.1204 26.3503C26.3723 26.785 26.8077 27.0809 27.3036 27.206C27.8182 27.3376 28.4066 27.1653 28.895 27.3977C29.0209 27.4585 29.1317 27.5849 29.1823 27.7125C29.3405 28.1239 29.1908 28.7479 29.1413 29.1723C28.9846 30.5393 28.8188 31.92 28.7446 33.2935C28.7007 34.1242 28.6522 35.1881 29.1547 35.9119C29.4628 36.3514 30.087 36.7618 30.6502 36.5433C31.4921 36.2211 31.4011 35.1326 31.3661 34.4346Z" fill="white"/>
<path d="M20.6565 14.0448C20.4145 14.1418 20.5063 15.0068 20.4955 15.2725C20.4796 15.75 20.5122 16.3818 20.4547 17.0006C20.4544 17.0061 20.4535 17.0099 20.4527 17.0138C20.4477 17.0568 20.4437 17.1032 20.4366 17.1521C20.4291 17.1994 20.4211 17.245 20.4153 17.2919C20.3637 17.5936 20.2655 17.9508 20.08 18.1221C19.8693 18.318 19.3972 18.2768 19.2332 18.0453C18.9649 17.6685 18.9851 16.8272 18.9688 16.8024C18.9579 16.4044 18.8999 15.2007 18.8129 14.407C18.8057 14.3472 18.7941 13.9875 18.4657 13.9491C18.3125 13.9324 18.1514 14.063 18.0991 14.3013C17.9449 15.005 17.8004 16.3463 17.7913 16.5572C17.7895 16.5777 17.7886 16.6015 17.7885 16.6214C17.7885 16.6214 17.7877 16.6253 17.7881 16.627C17.7871 16.6708 17.735 17.7216 17.469 18.0842C17.33 18.2742 16.9692 18.4237 16.6106 18.2226C16.4678 18.1416 16.3699 17.9856 16.3009 17.8184C15.9259 16.6512 16.2625 15.3654 16.3104 14.7528C16.3246 14.5804 16.4807 14.0051 16.1325 14.0243C15.6083 14.0528 14.9314 16.2862 14.8103 16.7981C14.5136 18.0718 14.4686 19.4327 14.9848 20.6614C15.2715 21.3417 15.8324 21.8986 16.5279 22.1686C16.8352 22.2869 17.1768 22.3727 17.5385 22.4225C17.4084 25.318 17.2606 28.3396 17.1261 30.0211C17.0226 31.2866 16.9004 32.5659 16.9168 33.8366C16.9266 34.5958 16.9186 35.5011 17.4169 36.1376C17.9382 36.8027 19.0378 36.4968 19.3347 35.7109C19.6677 34.825 19.5708 33.7927 19.4574 32.1662C19.3436 30.538 19.2154 28.3168 19.1448 27.1217C19.0414 25.3621 19.0053 23.8244 18.9954 22.4214C19.9213 22.2891 20.7849 21.8918 21.2683 21.1611C21.4803 20.8415 21.6199 20.4844 21.7153 20.117C21.8615 19.5605 21.9328 18.9508 21.9012 18.3768C21.8691 17.8483 21.4348 13.733 20.6565 14.0448Z" fill="white"/>
</svg>
