<svg width="89" height="19" viewBox="0 0 89 19" fill="none" xmlns="http://www.w3.org/2000/svg">
<line x1="4.54163" y1="9.02789" x2="81.9507" y2="9.02789" stroke="#CCCCCC" stroke-width="0.74754" stroke-dasharray="2.24 2.24"/>
<path d="M43.8475 16.4423H42.8268C42.7242 16.4423 42.6233 16.4188 42.5332 16.3739C42.4432 16.329 42.3669 16.2642 42.3113 16.1855C42.2557 16.1067 42.2227 16.0164 42.2151 15.923C42.2076 15.8295 42.2258 15.7358 42.2681 15.6504L44.7397 10.6658L41.0284 10.5905L39.6749 12.0892C39.4168 12.3856 39.2109 12.5177 38.6856 12.5177H37.9985C37.8897 12.521 37.7816 12.5001 37.6835 12.4571C37.5854 12.414 37.5001 12.35 37.4348 12.2704C37.3436 12.1579 37.2538 11.9673 37.3413 11.6953L38.1012 9.20743C38.107 9.18886 38.1139 9.17029 38.1216 9.15207C38.1219 9.15033 38.1219 9.14855 38.1216 9.14681C38.1136 9.12861 38.1069 9.11001 38.1012 9.0911L37.3405 6.58742C37.258 6.32076 37.3482 6.13435 37.4386 6.02467C37.4994 5.95098 37.5782 5.89136 37.6688 5.85058C37.7594 5.80981 37.8592 5.78902 37.9601 5.78989H38.6856C39.0779 5.78989 39.4586 5.95073 39.6825 6.21038L41.0081 7.68386L44.7397 7.6334L42.2688 2.65759C42.2265 2.57224 42.2082 2.47856 42.2157 2.38509C42.2232 2.29163 42.2561 2.20137 42.3116 2.12257C42.3671 2.04376 42.4434 1.97892 42.5333 1.93398C42.6233 1.88904 42.7242 1.86543 42.8268 1.86531H43.8586C44.0025 1.86795 44.144 1.9002 44.2724 1.95965C44.4009 2.0191 44.513 2.10423 44.6005 2.20871L49.3955 7.53493L51.6106 7.48167C51.7728 7.47361 52.2222 7.47081 52.3261 7.47081C54.445 7.47186 55.7104 8.10049 55.7104 9.15382C55.7104 9.48531 55.5654 10.0999 54.5957 10.491C54.0232 10.7223 53.2594 10.8393 52.3253 10.8393C52.2226 10.8393 51.7743 10.8365 51.6098 10.8284L49.3951 10.7745L44.5883 16.1007C44.5007 16.2047 44.3886 16.2894 44.2604 16.3486C44.1322 16.4077 43.9911 16.4397 43.8475 16.4423Z" fill="#1262AE"/>
<circle cx="4.73513" cy="9.40167" r="2.99016" fill="white" stroke="#1262AE" stroke-width="1.49508"/>
<circle cx="84.984" cy="9.08993" r="2.99016" fill="white" stroke="#1262AE" stroke-width="1.49508"/>
</svg>
