<svg width="131" height="26" viewBox="0 0 131 26" fill="none" xmlns="http://www.w3.org/2000/svg">
<g clip-path="url(#clip0_1038_1489)">
<path d="M97.862 6.52634C98.8811 6.52634 99.8063 6.65596 100.638 6.9152C101.469 7.17443 102.171 7.50965 102.743 7.92086C103.1 8.17115 103.382 8.44827 103.588 8.7522C103.793 9.05613 103.896 9.44946 103.896 9.93217V19.3183L103.892 19.5735C103.862 20.4135 103.685 21.1464 103.36 21.7721C103.002 22.4604 102.515 23.0326 101.898 23.4885C101.281 23.9444 100.557 24.2796 99.7258 24.4941C98.8945 24.7087 98.005 24.8159 97.0575 24.8159C95.4305 24.8159 94.1522 24.5969 93.2225 24.1589C92.2929 23.7209 91.828 23.0102 91.828 22.0269C91.828 21.6157 91.913 21.2537 92.0828 20.9408C92.2526 20.6279 92.4448 20.391 92.6594 20.2301C93.1779 20.5162 93.7634 20.7575 94.4159 20.9542C95.0685 21.1509 95.7434 21.2492 96.4407 21.2492C97.4061 21.2492 98.1749 21.0883 98.747 20.7665C99.3191 20.4447 99.6051 19.9262 99.6051 19.2111V18.782L99.4012 18.8657C98.7083 19.1317 97.8823 19.2647 96.9234 19.2647C96.1189 19.2647 95.3545 19.144 94.6305 18.9026C93.9064 18.6613 93.2717 18.2858 92.7264 17.7763C92.1811 17.2668 91.7431 16.6097 91.4124 15.8052C91.0816 15.0007 90.9162 14.0442 90.9162 12.9357C90.9162 11.8452 91.0906 10.8976 91.4392 10.0931C91.7878 9.28855 92.2705 8.62258 92.8873 8.09517C93.5041 7.56776 94.2372 7.17443 95.0864 6.9152C95.9356 6.65596 96.8608 6.52634 97.862 6.52634ZM25.6766 6.94266C27.271 6.94266 28.5756 7.30042 29.5906 8.01594C30.6055 8.73145 31.2063 9.99527 31.393 11.8074H27.9865L27.9539 11.6069C27.8767 11.2117 27.7282 10.8508 27.5082 10.5241C27.1349 10.0108 26.5555 9.75417 25.77 9.75417C24.65 9.75417 23.8839 10.3103 23.4717 11.4224C23.254 12.0135 23.1451 12.799 23.1451 13.779C23.1451 14.7122 23.254 15.4627 23.4717 16.0305C23.8684 17.0882 24.615 17.6171 25.7116 17.6171C26.4894 17.6171 27.0416 17.4071 27.3682 16.9871C27.6948 16.5671 27.8932 16.0227 27.9632 15.3539H31.358L31.3349 15.5862C31.2223 16.5118 30.8644 17.3909 30.2614 18.2237C29.2192 19.6781 27.6754 20.4053 25.63 20.4053C23.5845 20.4053 22.0796 19.7986 21.1152 18.5854C20.1508 17.3721 19.6686 15.7972 19.6686 13.8606C19.6686 11.6752 20.2014 9.97583 21.2669 8.76256C22.3324 7.54929 23.8023 6.94266 25.6766 6.94266ZM56.5736 6.90766C57.6313 6.90766 58.584 7.10599 59.4318 7.50263C60.2795 7.89928 60.9795 8.52535 61.5316 9.38086C62.0294 10.1353 62.3522 11.0102 62.4999 12.0057C62.5855 12.589 62.6205 13.429 62.6049 14.5256H53.9021L53.914 14.7467C53.9971 15.905 54.3936 16.7257 55.1037 17.2088C55.5625 17.5276 56.1147 17.6871 56.7602 17.6871C57.4446 17.6871 58.0007 17.4926 58.4285 17.1038C58.6618 16.8938 58.8679 16.6021 59.0468 16.2288H62.4416L62.4164 16.4031C62.2938 17.1011 61.9094 17.8091 61.2633 18.527C60.1745 19.7636 58.6501 20.3819 56.6902 20.3819C55.0726 20.3819 53.6454 19.8608 52.4088 18.8187C51.1722 17.7765 50.5539 16.081 50.5539 13.7323C50.5539 11.5313 51.1119 9.84361 52.228 8.66923C53.344 7.49485 54.7926 6.90766 56.5736 6.90766ZM79.9186 2.23553C80.3119 2.23553 80.665 2.26235 80.9779 2.31598C81.2908 2.36962 81.5545 2.47689 81.769 2.6378C81.9836 2.7987 82.1489 3.01771 82.2651 3.29483C82.3813 3.57194 82.4395 3.93398 82.4395 4.38094V19.9351L82.3494 19.9513C82.1579 19.9852 81.8974 20.029 81.5679 20.0826C81.1835 20.1452 80.7946 20.1765 80.4013 20.1765C80.008 20.1765 79.6549 20.1497 79.342 20.096C79.0292 20.0424 78.7654 19.9351 78.5509 19.7742C78.3364 19.6133 78.171 19.3943 78.0548 19.1172C77.9386 18.8401 77.8805 18.478 77.8805 18.0311V2.47689L77.9705 2.46074C78.162 2.42681 78.4226 2.38303 78.752 2.32939C79.1364 2.26682 79.5253 2.23553 79.9186 2.23553ZM86.7717 6.87497C87.165 6.87497 87.5181 6.90179 87.831 6.95542C88.1439 7.00906 88.4076 7.11633 88.6221 7.27723C88.8367 7.43814 89.002 7.65715 89.1182 7.93426C89.2345 8.21138 89.2926 8.57342 89.2926 9.02038V19.9351L89.2025 19.9513C89.011 19.9852 88.7505 20.029 88.421 20.0826C88.0366 20.1452 87.6478 20.1765 87.2544 20.1765C86.8611 20.1765 86.508 20.1497 86.1951 20.096C85.8823 20.0424 85.6186 19.9351 85.404 19.7742C85.1895 19.6133 85.0241 19.3943 84.9079 19.1172C84.7917 18.8401 84.7336 18.478 84.7336 18.0311V7.11633L84.8236 7.10018C85.0152 7.06625 85.2757 7.02247 85.6051 6.96883C85.9895 6.90626 86.3784 6.87497 86.7717 6.87497ZM108.121 2.23553C108.514 2.23553 108.867 2.26235 109.18 2.31598C109.493 2.36962 109.757 2.47689 109.971 2.6378C110.186 2.7987 110.351 3.01771 110.467 3.29483C110.584 3.57194 110.642 3.93398 110.642 4.38094V7.00906L110.735 6.97491C110.964 6.89376 111.287 6.80234 111.701 6.70066C112.175 6.58445 112.698 6.52634 113.27 6.52634C115.04 6.52634 116.421 6.96883 117.413 7.85381C118.405 8.73879 118.902 10.0573 118.902 11.8094V19.9351L118.819 19.9581C118.64 20.0041 118.386 20.0501 118.057 20.096C117.672 20.1497 117.275 20.1765 116.863 20.1765C116.47 20.1765 116.117 20.1497 115.804 20.096C115.491 20.0424 115.228 19.9351 115.013 19.7742C114.798 19.6133 114.633 19.3943 114.517 19.1172C114.401 18.8401 114.343 18.478 114.343 18.0311V12.0776L114.339 11.9123C114.313 11.2668 114.131 10.8079 113.793 10.5356C113.426 10.2406 112.975 10.0931 112.439 10.0931C112.081 10.0931 111.741 10.1378 111.419 10.2272C111.098 10.3166 110.838 10.4238 110.642 10.549V19.9351L110.559 19.9581C110.38 20.0041 110.127 20.0501 109.797 20.096C109.413 20.1497 109.015 20.1765 108.604 20.1765C108.21 20.1765 107.857 20.1497 107.544 20.096C107.231 20.0424 106.968 19.9351 106.753 19.7742C106.539 19.6133 106.373 19.3943 106.257 19.1172C106.141 18.8401 106.083 18.478 106.083 18.0311V2.47689L106.173 2.46074C106.364 2.42681 106.625 2.38303 106.954 2.32939C107.339 2.26682 107.728 2.23553 108.121 2.23553ZM76.0154 3.7105L76.0769 3.81442C76.1774 3.99692 76.2687 4.22599 76.3506 4.50162C76.449 4.83237 76.4981 5.17652 76.4981 5.53409C76.4981 6.23135 76.3506 6.72747 76.0557 7.02247C75.7607 7.31746 75.3629 7.46496 74.8623 7.46496H69.2306V10.4953H75.1036L75.1733 10.5989C75.2863 10.7802 75.3837 11.0049 75.4657 11.2731C75.564 11.5949 75.6132 11.9346 75.6132 12.2921C75.6132 12.9715 75.4657 13.4587 75.1707 13.7537C74.8757 14.0487 74.4779 14.1962 73.9773 14.1962H69.2842V19.8547L69.1931 19.8777C68.9972 19.9236 68.7191 19.9696 68.359 20.0156C67.9389 20.0692 67.5232 20.096 67.112 20.096C66.7008 20.096 66.3388 20.0647 66.0259 20.0022C65.713 19.9396 65.4493 19.8279 65.2348 19.667C65.0202 19.506 64.8593 19.2826 64.752 18.9965C64.6448 18.7105 64.5911 18.335 64.5911 17.8702V6.20453L64.5958 6.01569C64.6299 5.33557 64.8519 4.79065 65.2616 4.38094C65.7085 3.93398 66.3164 3.7105 67.0852 3.7105H76.0154ZM12.9843 2.78956V5.81106H4.36314V9.76584H11.9111V12.7523H4.36314V19.9619H0.793335V2.78956H12.9843ZM17.8547 7.24598V19.9619H14.4832V7.24598H17.8547ZM36.2284 2.82456V12.0874L40.3698 7.30431H44.4879L40.0432 12.169L44.6629 19.9619H40.6498L37.605 14.5256L36.2284 15.9605V19.9619H32.9619V2.82456H36.2284ZM48.9967 2.76623V19.9619H45.6719V2.76623H48.9967ZM119.15 3.60021C119.707 3.43262 120.658 3.39534 121.772 3.88776C122.896 4.38485 123.597 5.23749 123.875 6.44567L129.909 6.9585C129.984 6.96283 130.058 6.97797 130.132 7.00392C130.243 7.04283 130.302 7.09758 130.352 7.14044C130.475 7.24552 130.515 7.32654 130.573 7.47163C130.677 7.72963 130.645 8.03328 130.51 8.24149C130.292 8.57717 129.951 8.79436 129.486 8.89307L124.615 9.92846L125.475 13.9739C125.574 14.4382 125.792 14.7373 126.128 14.8711C126.464 15.005 126.901 15.0149 127.436 14.9011C127.704 14.8441 127.976 14.7629 128.253 14.6575C128.529 14.5521 128.767 14.441 128.966 14.324C129.168 14.4863 129.353 14.6756 129.521 14.8921C129.688 15.1085 129.808 15.3864 129.88 15.7257C130.146 16.9802 128.172 18.1654 126.878 18.398C125.679 18.6134 123.84 18.7923 122.788 16.0378C121.737 13.2834 120.086 8.66624 118.825 4.81849C118.716 4.48644 118.649 4.16031 118.766 3.89119C118.829 3.74573 118.875 3.68294 119.15 3.60021ZM98.0765 10.0931C97.2005 10.0931 96.5435 10.3389 96.1054 10.8306C95.6674 11.3222 95.4484 12.0239 95.4484 12.9357C95.4484 13.9727 95.6674 14.7191 96.1054 15.175C96.5435 15.6309 97.1022 15.8589 97.7815 15.8589C98.5145 15.8589 99.0956 15.689 99.5247 15.3493V10.4149L99.4426 10.372C99.3239 10.3148 99.168 10.2576 98.9749 10.2003C98.7336 10.1288 98.4341 10.0931 98.0765 10.0931ZM56.5736 9.64918C55.8036 9.64918 55.2067 9.89028 54.7828 10.3725C54.359 10.8547 54.0926 11.508 53.9837 12.3324H59.1518C59.0973 11.4535 58.831 10.7866 58.3527 10.3316C57.8743 9.87667 57.2813 9.64918 56.5736 9.64918ZM17.8547 2.66123V5.7294H14.4832V2.66123H17.8547ZM87.0131 0.894653C87.764 0.894653 88.3674 1.12707 88.8232 1.59191C89.2792 2.05675 89.5071 2.62886 89.5071 3.30823C89.5071 3.98761 89.2792 4.55972 88.8232 5.02456C88.3674 5.4894 87.764 5.72182 87.0131 5.72182C86.2622 5.72182 85.6588 5.4894 85.2029 5.02456C84.747 4.55972 84.519 3.98761 84.519 3.30823C84.519 2.62886 84.747 2.05675 85.2029 1.59191C85.6588 1.12707 86.2622 0.894653 87.0131 0.894653Z" fill="white"/>
</g>
<defs>
<clipPath id="clip0_1038_1489">
<rect width="130.072" height="24.6688" fill="white" transform="translate(0.793335 0.501953)"/>
</clipPath>
</defs>
</svg>
