<svg width="19" height="19" viewBox="0 0 19 19" fill="none" xmlns="http://www.w3.org/2000/svg">
<path d="M16.8922 14.6789C16.4116 14.2505 15.9909 13.7594 15.6413 13.2188C15.2597 12.4725 15.031 11.6575 14.9685 10.8216V8.35975C14.9718 7.04687 14.4956 5.77798 13.6293 4.79148C12.763 3.80497 11.5663 3.16876 10.264 3.00238V2.35949C10.264 2.18304 10.1939 2.01382 10.0692 1.88905C9.9444 1.76428 9.77517 1.69418 9.59872 1.69418C9.42227 1.69418 9.25305 1.76428 9.12828 1.88905C9.00351 2.01382 8.93341 2.18304 8.93341 2.35949V3.01234C7.64279 3.19072 6.46054 3.83078 5.60563 4.81397C4.75072 5.79716 4.28109 7.05686 4.28372 8.35975V10.8216C4.2213 11.6575 3.99256 12.4725 3.61093 13.2188C3.2675 13.7582 2.85352 14.2492 2.37998 14.6789C2.32682 14.7256 2.28422 14.7831 2.255 14.8476C2.22579 14.912 2.21063 14.982 2.21054 15.0527V15.7305C2.21054 15.8627 2.26305 15.9894 2.35651 16.0829C2.44997 16.1763 2.57673 16.2288 2.7089 16.2288H16.5633C16.6955 16.2288 16.8222 16.1763 16.9157 16.0829C17.0092 15.9894 17.0617 15.8627 17.0617 15.7305V15.0527C17.0616 14.982 17.0464 14.912 17.0172 14.8476C16.988 14.7831 16.9454 14.7256 16.8922 14.6789ZM3.24713 15.2321C3.71081 14.7842 4.11906 14.2823 4.46313 13.737C4.94385 12.8358 5.22434 11.8413 5.28542 10.8216V8.35975C5.26566 7.77569 5.36362 7.19362 5.57349 6.64821C5.78336 6.1028 6.10084 5.6052 6.50702 5.18504C6.9132 4.76489 7.39978 4.43076 7.93778 4.20256C8.47578 3.97437 9.0542 3.85677 9.63859 3.85677C10.223 3.85677 10.8014 3.97437 11.3394 4.20256C11.8774 4.43076 12.364 4.76489 12.7702 5.18504C13.1763 5.6052 13.4938 6.1028 13.7037 6.64821C13.9136 7.19362 14.0115 7.77569 13.9918 8.35975V10.8216C14.0528 11.8413 14.3333 12.8358 14.8141 13.737C15.1581 14.2823 15.5664 14.7842 16.0301 15.2321H3.24713Z" fill="#424242"/>
<path d="M9.66115 17.8638C9.97509 17.8565 10.2763 17.7385 10.5117 17.5306C10.747 17.3226 10.9011 17.0382 10.9469 16.7275H8.32555C8.37263 17.0466 8.53402 17.3378 8.7797 17.5468C9.02538 17.7558 9.33862 17.8684 9.66115 17.8638Z" fill="#424242"/>
<circle cx="14.4876" cy="4.87418" r="2.61639" fill="#F99A0E" stroke="white" stroke-width="0.74754"/>
</svg>
