<svg width="98" height="23" viewBox="0 0 98 23" fill="none" xmlns="http://www.w3.org/2000/svg">
<g clip-path="url(#clip0_1038_1495)">
<path d="M12.0065 0.550537C6.06133 0.550537 1.24194 5.36993 1.24194 11.3151C1.24194 17.2603 6.06133 22.0797 12.0065 22.0797C17.9517 22.0797 22.7711 17.2603 22.7711 11.3151C22.7711 5.36993 17.9517 0.550537 12.0065 0.550537ZM14.5564 7.9893H12.9383C12.7466 7.9893 12.5335 8.2416 12.5335 8.57687V9.74528H14.5575L14.2514 11.4115H12.5335V16.4137H10.6239V11.4115H8.89152V9.74528H10.6239V8.76525C10.6239 7.35913 11.5995 6.21651 12.9383 6.21651H14.5564V7.9893Z" fill="white"/>
</g>
<g clip-path="url(#clip1_1038_1495)">
<path d="M86.7605 0.550537C80.8153 0.550537 75.9959 5.36993 75.9959 11.3151C75.9959 17.2603 80.8153 22.0797 86.7605 22.0797C92.7057 22.0797 97.5251 17.2603 97.5251 11.3151C97.5251 5.36993 92.7057 0.550537 86.7605 0.550537ZM91.1392 9.36851C91.1437 9.46046 91.1448 9.55241 91.1448 9.64211C91.1448 12.4454 89.0132 15.6759 85.1133 15.6759C83.9609 15.6778 82.8325 15.3468 81.8637 14.7228C82.0286 14.743 82.1979 14.7508 82.3694 14.7508C83.3629 14.7508 84.2768 14.4133 85.0023 13.8437C84.5602 13.835 84.1318 13.6886 83.7768 13.4249C83.4218 13.1612 83.158 12.7933 83.022 12.3725C83.3395 12.4329 83.6666 12.4202 83.9785 12.3355C83.4986 12.2385 83.0671 11.9784 82.7571 11.5995C82.447 11.2206 82.2776 10.7462 82.2775 10.2566V10.2308C82.5634 10.3889 82.8908 10.4853 83.2384 10.4966C82.7886 10.1971 82.4701 9.73706 82.3482 9.21056C82.2262 8.68406 82.3101 8.13087 82.5825 7.66412C83.1151 8.31897 83.7792 8.85467 84.532 9.23655C85.2847 9.61843 86.1093 9.83797 86.9522 9.88095C86.8451 9.42605 86.8912 8.94848 87.0834 8.52249C87.2757 8.0965 87.6033 7.74597 88.0153 7.52538C88.4273 7.30479 88.9007 7.2265 89.3618 7.30269C89.8229 7.37889 90.2459 7.60528 90.5651 7.94669C91.0396 7.85281 91.4946 7.67876 91.9107 7.43201C91.7525 7.9233 91.4214 8.34047 90.9789 8.60602C91.3992 8.5554 91.8096 8.4424 92.1966 8.27075C91.9123 8.69673 91.5542 9.06849 91.1392 9.36851Z" fill="white"/>
</g>
<g clip-path="url(#clip2_1038_1495)">
<path d="M52.7474 11.3151C52.7474 12.2073 52.393 13.0629 51.7621 13.6938C51.1313 14.3246 50.2756 14.679 49.3835 14.679C48.4913 14.679 47.6357 14.3246 47.0048 13.6938C46.374 13.0629 46.0195 12.2073 46.0195 11.3151C46.0195 11.1234 46.0397 10.9361 46.0745 10.7545H44.8982V15.2363C44.8982 15.5481 45.1505 15.8003 45.4622 15.8003H53.3058C53.4552 15.8 53.5984 15.7405 53.7039 15.6348C53.8094 15.529 53.8687 15.3857 53.8687 15.2363V10.7545H52.6925C52.7272 10.9361 52.7474 11.1234 52.7474 11.3151ZM49.3835 13.5577C49.678 13.5577 49.9697 13.4996 50.2419 13.3868C50.514 13.274 50.7612 13.1087 50.9695 12.9003C51.1777 12.692 51.3429 12.4446 51.4556 12.1725C51.5682 11.9003 51.6262 11.6086 51.6261 11.314C51.626 11.0194 51.5679 10.7277 51.4551 10.4556C51.3423 10.1835 51.177 9.93623 50.9687 9.72798C50.7603 9.51974 50.513 9.35457 50.2408 9.2419C49.9686 9.12924 49.6769 9.07129 49.3823 9.07137C48.7874 9.07152 48.2169 9.30799 47.7963 9.72878C47.3758 10.1496 47.1396 10.7202 47.1397 11.3151C47.1399 11.91 47.3764 12.4805 47.7971 12.9011C48.2179 13.3217 48.7885 13.5579 49.3835 13.5577ZM52.0746 8.96036H53.4191C53.5084 8.96036 53.5941 8.92495 53.6573 8.8619C53.7206 8.79884 53.7563 8.71328 53.7566 8.62396V7.27951C53.7566 7.19 53.721 7.10415 53.6577 7.04086C53.5944 6.97756 53.5086 6.942 53.4191 6.942H52.0746C51.9851 6.942 51.8992 6.97756 51.836 7.04086C51.7727 7.10415 51.7371 7.19 51.7371 7.27951V8.62396C51.7382 8.80898 51.8896 8.96036 52.0746 8.96036ZM49.3835 0.550537C46.5285 0.550537 43.7905 1.68466 41.7718 3.70341C39.753 5.72216 38.6189 8.46017 38.6189 11.3151C38.6189 14.17 39.753 16.9081 41.7718 18.9268C43.7905 20.9456 46.5285 22.0797 49.3835 22.0797C50.7971 22.0797 52.1969 21.8012 53.5029 21.2603C54.8089 20.7193 55.9956 19.9264 56.9952 18.9268C57.9948 17.9272 58.7877 16.7405 59.3286 15.4345C59.8696 14.1285 60.148 12.7287 60.148 11.3151C60.148 9.90148 59.8696 8.5017 59.3286 7.19568C58.7877 5.88967 57.9948 4.70299 56.9952 3.70341C55.9956 2.70382 54.8089 1.91091 53.5029 1.36994C52.1969 0.828971 50.7971 0.550537 49.3835 0.550537ZM54.99 15.6759C54.99 16.361 54.4294 16.9217 53.7442 16.9217H45.0227C44.3376 16.9217 43.7769 16.361 43.7769 15.6759V6.95434C43.7769 6.26922 44.3376 5.70856 45.0227 5.70856H53.7442C54.4294 5.70856 54.99 6.26922 54.99 6.95434V15.6759Z" fill="white"/>
</g>
<defs>
<clipPath id="clip0_1038_1495">
<rect width="22.4262" height="22.4262" fill="white" transform="translate(0.793335 0.101807)"/>
</clipPath>
<clipPath id="clip1_1038_1495">
<rect width="22.4262" height="22.4262" fill="white" transform="translate(75.5472 0.101807)"/>
</clipPath>
<clipPath id="clip2_1038_1495">
<rect width="22.4262" height="22.4262" fill="white" transform="translate(38.1703 0.101807)"/>
</clipPath>
</defs>
</svg>
