<svg width="13" height="14" viewBox="0 0 13 14" fill="none" xmlns="http://www.w3.org/2000/svg">
<path d="M12.165 5.00942L8.43513 4.42319L6.7678 0.767539C6.72226 0.66745 6.64734 0.586425 6.55479 0.537175C6.32269 0.413255 6.04064 0.516522 5.92459 0.767539L4.25726 4.42319L0.527437 5.00942C0.424606 5.02531 0.330589 5.07774 0.258607 5.15717C0.171586 5.25391 0.123633 5.38404 0.125285 5.51899C0.126938 5.65394 0.178061 5.78266 0.267422 5.87686L2.966 8.72226L2.32845 12.7401C2.31349 12.8336 2.32306 12.9297 2.35605 13.0176C2.38904 13.1055 2.44415 13.1816 2.51511 13.2374C2.58607 13.2931 2.67006 13.3262 2.75754 13.333C2.84503 13.3397 2.93251 13.3198 3.01007 13.2755L6.34619 11.3786L9.68232 13.2755C9.7734 13.328 9.87917 13.3454 9.98053 13.3264C10.2361 13.2787 10.408 13.0166 10.3639 12.7401L9.72639 8.72226L12.425 5.87686C12.4984 5.79902 12.5469 5.69734 12.5616 5.58613C12.6012 5.3081 12.422 5.05073 12.165 5.00942Z" fill="#FDBF00"/>
</svg>
