<svg width="14" height="14" viewBox="0 0 14 14" fill="none" xmlns="http://www.w3.org/2000/svg">
<path d="M12.7427 5.00942L9.01283 4.42319L7.34549 0.767539C7.29995 0.66745 7.22503 0.586425 7.13248 0.537175C6.90038 0.413255 6.61833 0.516522 6.50227 0.767539L4.83494 4.42319L1.10511 5.00942C1.00227 5.02531 0.908257 5.07774 0.836275 5.15717C0.749253 5.25391 0.7013 5.38404 0.702953 5.51899C0.704605 5.65394 0.755729 5.78266 0.845089 5.87686L3.54367 8.72226L2.90612 12.7401C2.89117 12.8336 2.90073 12.9297 2.93373 13.0176C2.96672 13.1055 3.02182 13.1816 3.09279 13.2374C3.16375 13.2931 3.24774 13.3262 3.33522 13.333C3.4227 13.3397 3.51019 13.3198 3.58774 13.2755L6.92388 11.3786L10.26 13.2755C10.3511 13.328 10.4569 13.3454 10.5582 13.3264C10.8138 13.2787 10.9857 13.0166 10.9416 12.7401L10.3041 8.72226L13.0027 5.87686C13.0761 5.79902 13.1246 5.69734 13.1393 5.58613C13.179 5.3081 12.9997 5.05073 12.7427 5.00942Z" fill="#FDBF00"/>
</svg>
