<svg width="14" height="14" viewBox="0 0 14 14" fill="none" xmlns="http://www.w3.org/2000/svg">
<path d="M12.9767 5.00942L9.23967 4.42319L7.56913 0.767539C7.52351 0.66745 7.44844 0.586425 7.35572 0.537175C7.12317 0.413255 6.84057 0.516522 6.7243 0.767539L5.05376 4.42319L1.31675 5.00942C1.21373 5.02531 1.11953 5.07774 1.04741 5.15717C0.960219 5.25391 0.912173 5.38404 0.913829 5.51899C0.915485 5.65394 0.966707 5.78266 1.05624 5.87686L3.76001 8.72226L3.12123 12.7401C3.10625 12.8336 3.11583 12.9297 3.14889 13.0176C3.18195 13.1055 3.23716 13.1816 3.30826 13.2374C3.37936 13.2931 3.4635 13.3262 3.55116 13.333C3.63881 13.3397 3.72646 13.3198 3.80417 13.2755L7.14672 11.3786L10.4893 13.2755C10.5805 13.328 10.6865 13.3454 10.7881 13.3264C11.0442 13.2787 11.2164 13.0166 11.1722 12.7401L10.5334 8.72226L13.2372 5.87686C13.3108 5.79902 13.3594 5.69734 13.3741 5.58613C13.4138 5.3081 13.2342 5.05073 12.9767 5.00942Z" fill="#FDBF00"/>
</svg>
