<svg width="13" height="14" viewBox="0 0 13 14" fill="none" xmlns="http://www.w3.org/2000/svg">
<path d="M12.5314 5.00942L8.80161 4.42319L7.13427 0.767539C7.08873 0.66745 7.01381 0.586425 6.92126 0.537175C6.68916 0.413255 6.40711 0.516522 6.29106 0.767539L4.62372 4.42319L0.893893 5.00942C0.791062 5.02531 0.697045 5.07774 0.625063 5.15717C0.538041 5.25391 0.490088 5.38404 0.491741 5.51899C0.493393 5.65394 0.544517 5.78266 0.633877 5.87686L3.33246 8.72226L2.69491 12.7401C2.67996 12.8336 2.68952 12.9297 2.72251 13.0176C2.75551 13.1055 2.81061 13.1816 2.88157 13.2374C2.95254 13.2931 3.03652 13.3262 3.12401 13.333C3.21149 13.3397 3.29897 13.3198 3.37653 13.2755L6.71266 11.3786L10.0488 13.2755C10.1399 13.328 10.2456 13.3454 10.347 13.3264C10.6026 13.2787 10.7745 13.0166 10.7304 12.7401L10.0929 8.72226L12.7915 5.87686C12.8649 5.79902 12.9134 5.69734 12.9281 5.58613C12.9677 5.3081 12.7885 5.05073 12.5314 5.00942Z" fill="#FDBF00"/>
</svg>
