<svg width="20" height="20" viewBox="0 0 20 20" fill="none" xmlns="http://www.w3.org/2000/svg">
<path d="M9.98156 17.6903C7.9388 17.6903 5.97971 16.8788 4.53526 15.4344C3.09082 13.9899 2.27933 12.0309 2.27933 9.98809C2.27933 7.94533 3.09082 5.98624 4.53526 4.5418C5.97971 3.09735 7.9388 2.28587 9.98156 2.28587C12.0243 2.28587 13.9834 3.09735 15.4279 4.5418C16.8723 5.98624 17.6838 7.94533 17.6838 9.98809C17.6838 12.0309 16.8723 13.9899 15.4279 15.4344C13.9834 16.8788 12.0243 17.6903 9.98156 17.6903ZM9.98156 18.7906C12.3161 18.7906 14.5551 17.8632 16.2059 16.2124C17.8567 14.5616 18.7841 12.3227 18.7841 9.98809C18.7841 7.65351 17.8567 5.41455 16.2059 3.76375C14.5551 2.11296 12.3161 1.18555 9.98156 1.18555C7.64698 1.18555 5.40802 2.11296 3.75722 3.76375C2.10642 5.41455 1.17902 7.65351 1.17902 9.98809C1.17902 12.3227 2.10642 14.5616 3.75722 16.2124C5.40802 17.8632 7.64698 18.7906 9.98156 18.7906Z" fill="#1262AF"/>
<path d="M8.01662 6.25034C8.12042 6.19689 8.23695 6.17311 8.35339 6.18162C8.46983 6.19013 8.58167 6.2306 8.6766 6.29857L13.1188 9.47154C13.201 9.53024 13.2681 9.60774 13.3143 9.69759C13.3606 9.78744 13.3847 9.88704 13.3847 9.9881C13.3847 10.0892 13.3606 10.1888 13.3143 10.2786C13.2681 10.3685 13.201 10.446 13.1188 10.5047L8.6766 13.6776C8.5817 13.7455 8.46992 13.786 8.35354 13.7945C8.23716 13.803 8.12068 13.7793 8.01692 13.7259C7.91316 13.6725 7.82612 13.5915 7.76539 13.4919C7.70466 13.3922 7.67257 13.2778 7.67267 13.1611V6.81513C7.67255 6.69847 7.70459 6.58403 7.76526 6.48439C7.82594 6.38475 7.91291 6.30377 8.01662 6.25034Z" fill="#1262AF"/>
</svg>
