<svg width="19" height="20" viewBox="0 0 19 20" fill="none" xmlns="http://www.w3.org/2000/svg">
<g clip-path="url(#clip0_1038_1444)">
<path d="M9.61514 17.6903C7.57238 17.6903 5.61329 16.8788 4.16884 15.4344C2.72439 13.9899 1.91291 12.0309 1.91291 9.98809C1.91291 7.94533 2.72439 5.98624 4.16884 4.5418C5.61329 3.09735 7.57238 2.28587 9.61514 2.28587C11.6579 2.28587 13.617 3.09735 15.0614 4.5418C16.5059 5.98624 17.3174 7.94533 17.3174 9.98809C17.3174 12.0309 16.5059 13.9899 15.0614 15.4344C13.617 16.8788 11.6579 17.6903 9.61514 17.6903ZM9.61514 18.7906C11.9497 18.7906 14.1887 17.8632 15.8395 16.2124C17.4903 14.5616 18.4177 12.3227 18.4177 9.98809C18.4177 7.65351 17.4903 5.41455 15.8395 3.76375C14.1887 2.11296 11.9497 1.18555 9.61514 1.18555C7.28056 1.18555 5.04159 2.11296 3.3908 3.76375C1.74 5.41455 0.812592 7.65351 0.812592 9.98809C0.812592 12.3227 1.74 14.5616 3.3908 16.2124C5.04159 17.8632 7.28056 18.7906 9.61514 18.7906Z" fill="#1262AF"/>
<path d="M7.65016 6.25034C7.75396 6.19689 7.87049 6.17311 7.98694 6.18162C8.10338 6.19013 8.21522 6.2306 8.31014 6.29857L12.7523 9.47154C12.8346 9.53024 12.9016 9.60774 12.9479 9.69759C12.9941 9.78744 13.0183 9.88704 13.0183 9.9881C13.0183 10.0892 12.9941 10.1888 12.9479 10.2786C12.9016 10.3685 12.8346 10.446 12.7523 10.5047L8.31014 13.6776C8.21525 13.7455 8.10347 13.786 7.98708 13.7945C7.8707 13.803 7.75423 13.7793 7.65046 13.7259C7.5467 13.6725 7.45967 13.5915 7.39894 13.4919C7.3382 13.3922 7.30612 13.2778 7.30621 13.1611V6.81513C7.30609 6.69847 7.33813 6.58403 7.39881 6.48439C7.45949 6.38475 7.54646 6.30377 7.65016 6.25034Z" fill="#1262AF"/>
</g>
<defs>
<clipPath id="clip0_1038_1444">
<rect width="18.6885" height="18.6885" fill="white" transform="translate(0.270905 0.643921)"/>
</clipPath>
</defs>
</svg>
